<svg width="134" height="42" viewBox="0 0 134 42" fill="none" xmlns="http://www.w3.org/2000/svg">
<path d="M65.8795 12.0347H68.2606L61.9561 22.5602V29H59.6562V22.5602L53.1894 12.0347H55.787L60.8468 20.5038L65.8795 12.0347ZM84.5228 20.4768C84.5228 23.5614 83.9275 25.7891 82.737 27.1601C81.5645 28.531 79.6434 29.2165 76.9737 29.2165C74.1055 29.2165 72.1213 28.5851 71.0209 27.3224C69.9386 26.0417 69.3975 23.7598 69.3975 20.4768C69.3975 17.4102 69.9928 15.1915 71.1833 13.8205C72.3738 12.4496 74.304 11.7642 76.9737 11.7642C79.8418 11.7642 81.817 12.4045 82.8993 13.6853C83.9817 14.948 84.5228 17.2118 84.5228 20.4768ZM72.5362 25.3742C72.8789 25.9876 73.384 26.4205 74.0514 26.673C74.7189 26.9256 75.6929 27.0518 76.9737 27.0518C78.976 27.0518 80.3469 26.5738 81.0865 25.6178C81.8261 24.6437 82.1958 22.93 82.1958 20.4768C82.1958 19.2502 82.1327 18.249 82.0064 17.4734C81.8802 16.6797 81.6817 16.0393 81.4112 15.5522C81.0684 14.9389 80.5634 14.506 79.8959 14.2535C79.2465 13.9829 78.2725 13.8476 76.9737 13.8476C74.9534 13.8476 73.5734 14.3346 72.8338 15.3087C72.0942 16.2828 71.7245 18.0055 71.7245 20.4768C71.7245 21.7034 71.7876 22.7136 71.9139 23.5073C72.0401 24.2829 72.2476 24.9052 72.5362 25.3742ZM93.1801 22.6685V12.0347H95.48V22.8038C95.48 25.0405 94.9929 26.673 94.0189 27.7012C93.0448 28.7114 91.4664 29.2165 89.2837 29.2165C88.6704 29.2165 88.1022 29.1894 87.5791 29.1353C87.056 29.0812 86.5779 28.991 86.145 28.8647V26.7542C86.6501 26.8624 87.1191 26.9436 87.552 26.9977C88.003 27.0338 88.481 27.0518 88.9861 27.0518C90.5554 27.0518 91.6468 26.7271 92.2601 26.0778C92.8734 25.4284 93.1801 24.2919 93.1801 22.6685ZM100.029 29H97.5934L104.304 12.0347H106.685L113.314 29H110.879L109.337 24.9143H101.571L100.029 29ZM105.44 14.1452C105.26 14.7766 105.043 15.444 104.791 16.1475C104.556 16.851 104.313 17.5545 104.06 18.258L102.329 22.8849H108.579L106.847 18.258C106.486 17.2659 106.198 16.4632 105.981 15.8499C105.783 15.2366 105.603 14.6684 105.44 14.1452ZM122.531 20.3144L129.729 29H126.753L120.556 21.3967H118.338V29H116.038V12.0347H118.338V19.3674H120.556L126.644 12.0347H129.458L122.531 20.3144Z" fill="white"/>
<path d="M65.8795 12.0347V11.7942H65.7427L65.6728 11.9119L65.8795 12.0347ZM68.2606 12.0347L68.467 12.1583L68.685 11.7942H68.2606V12.0347ZM61.9561 22.5602L61.7498 22.4366L61.7156 22.4937V22.5602H61.9561ZM61.9561 29V29.2405H62.1967V29H61.9561ZM59.6562 29H59.4157V29.2405H59.6562V29ZM59.6562 22.5602H59.8967V22.4923L59.8612 22.4343L59.6562 22.5602ZM53.1894 12.0347V11.7942H52.7594L52.9845 12.1606L53.1894 12.0347ZM55.787 12.0347L55.9934 11.9114L55.9234 11.7942H55.787V12.0347ZM60.8468 20.5038L60.6403 20.6272L60.8473 20.9737L61.0535 20.6267L60.8468 20.5038ZM65.8795 12.2752H68.2606V11.7942H65.8795V12.2752ZM68.0543 11.9111L61.7498 22.4366L62.1625 22.6838L68.467 12.1583L68.0543 11.9111ZM61.7156 22.5602V29H62.1967V22.5602H61.7156ZM61.9561 28.7595H59.6562V29.2405H61.9561V28.7595ZM59.8967 29V22.5602H59.4157V29H59.8967ZM59.8612 22.4343L53.3943 11.9088L52.9845 12.1606L59.4513 22.6861L59.8612 22.4343ZM53.1894 12.2752H55.787V11.7942H53.1894V12.2752ZM55.5805 12.1581L60.6403 20.6272L61.0532 20.3805L55.9934 11.9114L55.5805 12.1581ZM61.0535 20.6267L66.0863 12.1576L65.6728 11.9119L60.64 20.381L61.0535 20.6267ZM82.737 27.1601L82.5554 27.0024L82.5542 27.0037L82.737 27.1601ZM71.021 27.3224L70.8372 27.4777L70.8396 27.4804L71.021 27.3224ZM71.1833 13.8205L71.0017 13.6628L71.1833 13.8205ZM82.8993 13.6853L82.7156 13.8405L82.7167 13.8418L82.8993 13.6853ZM72.5362 25.3742L72.7463 25.2568L72.741 25.2482L72.5362 25.3742ZM81.0865 25.6178L81.2767 25.7649L81.278 25.7632L81.0865 25.6178ZM82.0064 17.4734L81.7689 17.5111L81.769 17.512L82.0064 17.4734ZM81.4112 15.5522L81.6214 15.4354L81.6211 15.4349L81.4112 15.5522ZM79.8959 14.2535L79.8034 14.4756L79.8108 14.4784L79.8959 14.2535ZM72.8338 15.3087L72.6423 15.1633L72.8338 15.3087ZM71.9139 23.5073L71.6763 23.545L71.6765 23.5459L71.9139 23.5073ZM84.2823 20.4768C84.2823 23.5406 83.6891 25.6969 82.5554 27.0024L82.9186 27.3178C84.166 25.8814 84.7633 23.5821 84.7633 20.4768H84.2823ZM82.5542 27.0037C81.4458 28.2997 79.6075 28.9759 76.9737 28.9759V29.457C79.6793 29.457 81.6832 28.7623 82.9198 27.3164L82.5542 27.0037ZM76.9737 28.9759C74.1278 28.9759 72.2331 28.3473 71.2023 27.1644L70.8396 27.4804C72.0095 28.8229 74.0833 29.457 76.9737 29.457V28.9759ZM71.2047 27.1672C70.1808 25.9556 69.638 23.7496 69.638 20.4768H69.157C69.157 23.77 69.6965 26.1278 70.8372 27.4777L71.2047 27.1672ZM69.638 20.4768C69.638 17.4314 70.231 15.2839 71.3649 13.9782L71.0017 13.6628C69.7545 15.099 69.157 17.3891 69.157 20.4768H69.638ZM71.3649 13.9782C72.4917 12.6808 74.3403 12.0047 76.9737 12.0047V11.5236C74.2677 11.5236 72.256 12.2185 71.0017 13.6628L71.3649 13.9782ZM76.9737 12.0047C79.8193 12.0047 81.703 12.6422 82.7156 13.8405L83.083 13.53C81.9311 12.1668 79.8643 11.5236 76.9737 11.5236V12.0047ZM82.7167 13.8418C83.7394 15.0349 84.2823 17.2218 84.2823 20.4768H84.7633C84.7633 17.2018 84.2239 14.861 83.082 13.5287L82.7167 13.8418ZM72.3262 25.4916C72.6971 26.1552 73.2468 26.6257 73.9663 26.898L74.1365 26.4481C73.5212 26.2152 73.0608 25.8199 72.7461 25.2569L72.3262 25.4916ZM73.9663 26.898C74.6745 27.1659 75.6832 27.2923 76.9737 27.2923V26.8113C75.7027 26.8113 74.7632 26.6852 74.1365 26.4481L73.9663 26.898ZM76.9737 27.2923C79.0021 27.2923 80.4685 26.8097 81.2767 25.7649L80.8962 25.4706C80.2253 26.3379 78.9498 26.8113 76.9737 26.8113V27.2923ZM81.278 25.7632C82.0685 24.7222 82.4364 22.9384 82.4364 20.4768H81.9553C81.9553 22.9217 81.5836 24.5652 80.8949 25.4723L81.278 25.7632ZM82.4364 20.4768C82.4364 19.2435 82.373 18.2282 82.2438 17.4347L81.769 17.512C81.8924 18.2699 81.9553 19.2568 81.9553 20.4768H82.4364ZM82.244 17.4356C82.1151 16.6253 81.9102 15.9553 81.6214 15.4354L81.2009 15.6691C81.4533 16.1233 81.6453 16.734 81.7689 17.5111L82.244 17.4356ZM81.6211 15.4349C81.2503 14.7713 80.7005 14.3008 79.981 14.0285L79.8108 14.4784C80.4262 14.7113 80.8866 15.1066 81.2012 15.6696L81.6211 15.4349ZM79.9884 14.0315C79.2945 13.7423 78.2819 13.6071 76.9737 13.6071V14.0881C78.263 14.0881 79.1986 14.2235 79.8034 14.4755L79.9884 14.0315ZM76.9737 13.6071C74.9268 13.6071 73.4503 14.099 72.6423 15.1633L73.0254 15.4542C73.6965 14.5703 74.9799 14.0881 76.9737 14.0881V13.6071ZM72.6423 15.1633C71.8517 16.2045 71.4839 17.9976 71.4839 20.4768H71.965C71.965 18.0133 72.3368 16.3611 73.0254 15.4542L72.6423 15.1633ZM71.4839 20.4768C71.4839 21.7102 71.5473 22.7342 71.6763 23.545L72.1514 23.4695C72.0278 22.693 71.965 21.6966 71.965 20.4768H71.4839ZM71.6765 23.5459C71.8058 24.3403 72.0209 24.9957 72.3314 25.5003L72.741 25.2482C72.4743 24.8148 72.2745 24.2255 72.1512 23.4686L71.6765 23.5459ZM93.1801 12.0347V11.7942H92.9395V12.0347H93.1801ZM95.48 12.0347H95.7205V11.7942H95.48V12.0347ZM94.0189 27.7012L94.192 27.8682L94.1935 27.8666L94.0189 27.7012ZM87.5791 29.1353L87.5543 29.3745L87.5791 29.1353ZM86.145 28.8647H85.9045V29.0451L86.0777 29.0956L86.145 28.8647ZM86.145 26.7542L86.1954 26.519L85.9045 26.4567V26.7542H86.145ZM87.552 26.9977L87.5222 27.2366L87.5328 27.2375L87.552 26.9977ZM92.2601 26.0778L92.435 26.2429L92.2601 26.0778ZM93.4206 22.6685V12.0347H92.9395V22.6685H93.4206ZM93.1801 12.2752H95.48V11.7942H93.1801V12.2752ZM95.2395 12.0347V22.8038H95.7205V12.0347H95.2395ZM95.2395 22.8038C95.2395 25.0132 94.7572 26.5721 93.8443 27.5358L94.1935 27.8666C95.2287 26.7739 95.7205 25.0679 95.7205 22.8038H95.2395ZM93.8457 27.5343C92.9368 28.4769 91.4366 28.9759 89.2837 28.9759V29.457C91.4962 29.457 93.1527 28.9459 94.192 27.8682L93.8457 27.5343ZM89.2837 28.9759C88.6774 28.9759 88.1175 28.9492 87.6038 28.8961L87.5543 29.3745C88.0869 29.4296 88.6635 29.457 89.2837 29.457V28.9759ZM87.6038 28.8961C87.0928 28.8432 86.6293 28.7554 86.2124 28.6338L86.0777 29.0956C86.5266 29.2265 87.0191 29.3192 87.5543 29.3745L87.6038 28.8961ZM86.3855 28.8647V26.7542H85.9045V28.8647H86.3855ZM86.0946 26.9894C86.6053 27.0988 87.0813 27.1813 87.5222 27.2364L87.5819 26.7591C87.157 26.7059 86.6949 26.6261 86.1954 26.519L86.0946 26.9894ZM87.5328 27.2375C87.9909 27.2741 88.4753 27.2923 88.9861 27.2923V26.8113C88.4867 26.8113 88.0151 26.7935 87.5712 26.758L87.5328 27.2375ZM88.9861 27.2923C90.575 27.2923 91.7519 26.9661 92.435 26.2429L92.0852 25.9126C91.5417 26.4881 90.5359 26.8113 88.9861 26.8113V27.2923ZM92.435 26.2429C93.1137 25.5243 93.4206 24.3081 93.4206 22.6685H92.9395C92.9395 24.2758 92.6332 25.3325 92.0852 25.9126L92.435 26.2429ZM100.029 29V29.2405H100.195L100.254 29.0849L100.029 29ZM97.5934 29L97.3698 28.9115L97.2397 29.2405H97.5934V29ZM104.304 12.0347V11.7942H104.14L104.08 11.9463L104.304 12.0347ZM106.685 12.0347L106.909 11.9472L106.849 11.7942H106.685V12.0347ZM113.314 29V29.2405H113.666L113.538 28.9125L113.314 29ZM110.879 29L110.654 29.0849L110.713 29.2405H110.879V29ZM109.337 24.9143L109.562 24.8293L109.503 24.6737H109.337V24.9143ZM101.571 24.9143V24.6737H101.405L101.346 24.8293L101.571 24.9143ZM105.44 14.1452L105.67 14.074L105.431 13.3031L105.209 14.0792L105.44 14.1452ZM104.791 16.1475L104.564 16.0662L104.563 16.0715L104.791 16.1475ZM104.06 18.258L104.286 18.3423L104.287 18.3393L104.06 18.258ZM102.329 22.8849L102.103 22.8006L101.982 23.1254H102.329V22.8849ZM108.579 22.8849V23.1254H108.926L108.804 22.8006L108.579 22.8849ZM106.847 18.258L106.621 18.3402L106.622 18.3423L106.847 18.258ZM105.981 15.8499L105.752 15.9239L105.755 15.9299L105.981 15.8499ZM100.029 28.7595H97.5934V29.2405H100.029V28.7595ZM97.8171 29.0885L104.527 12.1232L104.08 11.9463L97.3698 28.9115L97.8171 29.0885ZM104.304 12.2752H106.685V11.7942H104.304V12.2752ZM106.461 12.1223L113.09 29.0875L113.538 28.9125L106.909 11.9472L106.461 12.1223ZM113.314 28.7595H110.879V29.2405H113.314V28.7595ZM111.104 28.9151L109.562 24.8293L109.112 24.9992L110.654 29.0849L111.104 28.9151ZM109.337 24.6737H101.571V25.1548H109.337V24.6737ZM101.346 24.8293L99.8036 28.9151L100.254 29.0849L101.796 24.9992L101.346 24.8293ZM105.209 14.0792C105.03 14.7048 104.815 15.3671 104.564 16.0663L105.017 16.2288C105.271 15.5209 105.489 14.8484 105.671 14.2113L105.209 14.0792ZM104.563 16.0715C104.329 16.7732 104.086 17.475 103.834 18.1768L104.287 18.3393C104.54 17.6341 104.784 16.9288 105.019 16.2236L104.563 16.0715ZM103.835 18.1737L102.103 22.8006L102.554 22.9692L104.286 18.3423L103.835 18.1737ZM102.329 23.1254H108.579V22.6444H102.329V23.1254ZM108.804 22.8006L107.072 18.1737L106.622 18.3423L108.354 22.9692L108.804 22.8006ZM107.073 18.1758C106.713 17.1841 106.424 16.3821 106.208 15.7698L105.755 15.9299C105.971 16.5443 106.26 17.3478 106.621 18.3402L107.073 18.1758ZM106.21 15.7759C106.012 15.1633 105.832 14.596 105.67 14.074L105.211 14.2165C105.373 14.7407 105.554 15.3098 105.753 15.9239L106.21 15.7759ZM122.531 20.3144L122.347 20.1601L122.219 20.3137L122.346 20.4679L122.531 20.3144ZM129.729 29V29.2405H130.241L129.914 28.8465L129.729 29ZM126.753 29L126.566 29.1519L126.638 29.2405H126.753V29ZM120.556 21.3967L120.743 21.2448L120.671 21.1562H120.556V21.3967ZM118.338 21.3967V21.1562H118.097V21.3967H118.338ZM118.338 29V29.2405H118.578V29H118.338ZM116.038 29H115.797V29.2405H116.038V29ZM116.038 12.0347V11.7942H115.797V12.0347H116.038ZM118.338 12.0347H118.578V11.7942H118.338V12.0347ZM118.338 19.3674H118.097V19.6079H118.338V19.3674ZM120.556 19.3674V19.6079H120.669L120.741 19.521L120.556 19.3674ZM126.644 12.0347V11.7942H126.531L126.459 11.8811L126.644 12.0347ZM129.458 12.0347L129.643 12.1891L129.973 11.7942H129.458V12.0347ZM122.346 20.4679L129.544 29.1535L129.914 28.8465L122.717 20.161L122.346 20.4679ZM129.729 28.7595H126.753V29.2405H129.729V28.7595ZM126.939 28.8481L120.743 21.2448L120.37 21.5487L126.566 29.1519L126.939 28.8481ZM120.556 21.1562H118.338V21.6373H120.556V21.1562ZM118.097 21.3967V29H118.578V21.3967H118.097ZM118.338 28.7595H116.038V29.2405H118.338V28.7595ZM116.278 29V12.0347H115.797V29H116.278ZM116.038 12.2752H118.338V11.7942H116.038V12.2752ZM118.097 12.0347V19.3674H118.578V12.0347H118.097ZM118.338 19.6079H120.556V19.1269H118.338V19.6079ZM120.741 19.521L126.829 12.1884L126.459 11.8811L120.371 19.2138L120.741 19.521ZM126.644 12.2752H129.458V11.7942H126.644V12.2752ZM129.274 11.8804L122.347 20.1601L122.716 20.4688L129.643 12.1891L129.274 11.8804Z" fill="white"/>
<path fill-rule="evenodd" clip-rule="evenodd" d="M39.5834 9.74948C39.5786 9.74482 39.5739 9.74015 39.5739 9.73083C38.2424 7.65044 36.6206 5.89586 34.7038 4.46704C36.6205 5.89583 38.2422 7.65037 39.5736 9.73067C39.5736 9.74 39.5784 9.74466 39.5832 9.74933C39.588 9.75399 39.5927 9.75865 39.5927 9.76798L39.6101 9.79577C39.6919 9.92651 39.7303 9.98793 39.7757 10.0155C39.7304 9.98786 39.692 9.92642 39.6104 9.79593L39.593 9.76813C39.593 9.75881 39.5882 9.75414 39.5834 9.74948ZM41.9763 10.6502C42.4357 11.0127 42.7747 11.5107 42.9391 12.081C43.3789 13.7039 42.3655 15.2334 40.7783 15.5692C40.0859 15.7106 39.4104 15.6205 38.8418 15.3476C39.4105 15.6206 40.086 15.7107 40.7786 15.5694C42.3657 15.2336 43.3792 13.704 42.9394 12.0812C42.7749 11.5107 42.4358 11.0127 41.9763 10.6502ZM31.113 4.1352C30.9394 4.04578 30.7638 3.95854 30.5862 3.87349C29.0947 3.16466 27.5458 2.66102 25.9204 2.38121C24.7922 2.12007 23.664 2.0268 22.5166 2.0268C17.2198 2.12007 12.7069 3.98541 9.05461 7.7534C6.62609 10.2716 5.09631 13.2562 4.42704 16.6698C4.25494 17.5651 4.1402 18.4605 4.12108 19.3745C4.12108 19.427 4.11799 19.5042 4.1143 19.5966C4.1088 19.734 4.10196 19.9049 4.10196 20.0777H2.43859V20.0778H4.10222C4.10222 19.9051 4.10906 19.7342 4.11456 19.5968C4.11825 19.5044 4.12133 19.4271 4.12133 19.3747C4.14046 18.4606 4.2552 17.5653 4.4273 16.6699C5.09657 13.2563 6.62634 10.2718 9.05486 7.75356C12.7072 3.98556 17.22 2.12022 22.5169 2.02695C23.6642 2.02695 24.7924 2.12022 25.9206 2.38137C27.546 2.66117 29.0949 3.16481 30.5864 3.87364C30.764 3.95865 30.9395 4.04583 31.113 4.1352ZM30.9583 1.78136C28.8266 0.827491 26.5794 0.27501 24.2579 0.0843947C23.2629 -0.0106219 22.2834 -0.0299854 21.2824 0.0463447C20.3112 0.10334 19.3364 0.217296 18.3782 0.407966C16.2855 0.808778 14.3106 1.5339 12.4547 2.56297L12.4542 2.56323C8.41351 4.81016 5.45999 8.03407 3.62404 12.2065C2.58585 14.5569 2.07859 17.037 2.00061 19.5854L2.00041 19.5919L2.00041 20.2106C2.00041 20.3766 2.13501 20.5112 2.30106 20.5112H4.23975C4.4058 20.5112 4.5404 20.3766 4.5404 20.2106V20.0778C4.5404 19.942 4.5449 19.8056 4.54963 19.6835L4.55219 19.6192L4.55222 19.6183C4.55585 19.5279 4.55933 19.4411 4.55951 19.3795C4.57826 18.4969 4.68923 17.6276 4.85777 16.7508C5.51165 13.4172 7.0031 10.5091 9.3717 8.0529C12.9386 4.37334 17.3371 2.55245 22.5208 2.46031C23.6428 2.46052 24.7348 2.55195 25.8208 2.80332L25.8331 2.80617L25.8455 2.80831C27.4288 3.08086 28.939 3.57158 30.3961 4.264C33.4414 5.72207 35.8658 7.83275 37.6957 10.6197L37.7046 10.6332L37.7144 10.646C37.7162 10.6483 37.7181 10.6509 37.7203 10.6542C37.0418 11.4267 36.7293 12.3322 36.9038 13.3801C37.1951 15.2709 39.0024 16.3745 40.8672 15.9938L40.8702 15.9931C42.6943 15.6072 43.8695 13.8394 43.3626 11.969L43.3617 11.9656L43.3608 11.9623C42.9635 10.5846 41.6833 9.57585 40.1063 9.59593C40.071 9.59597 40.0373 9.59668 40.0072 9.59763L39.9441 9.49906C37.7374 6.05111 34.7457 3.4763 30.9583 1.78136ZM41.2913 13.4087C41.2913 13.7408 41.0221 14.01 40.69 14.01H39.5547C39.2226 14.01 38.9534 13.7408 38.9534 13.4087V12.2992C38.9534 11.9671 39.2226 11.6979 39.5547 11.6979H40.69C41.0221 11.6979 41.2913 11.9671 41.2913 12.2992V13.4087ZM17.3518 19.6508V16.5668V14.9884C17.3518 14.8224 17.4864 14.6878 17.6524 14.6878H19.2746C19.4407 14.6878 19.5753 14.8224 19.5753 14.9884V16.5668V20.1881C19.5753 21.5073 18.5699 22.609 17.2563 22.7295L16.4244 22.8058V24.7099C16.4244 25.4146 16.9956 25.9859 17.7004 25.9859H22.4088V14.6878H27.0146L23.5079 9.83375H26.0617L29.3969 14.6878H31.161C31.327 14.6878 31.4616 14.8224 31.4616 14.9884V16.2661C31.4616 16.4321 31.327 16.5668 31.161 16.5668H29.7146V30.0453C29.7146 30.2113 29.58 30.3459 29.4139 30.3459H27.6329C27.4669 30.3459 27.3323 30.2113 27.3323 30.0453V16.5668H24.7911V30.0453C24.7911 30.2113 24.6565 30.3459 24.4905 30.3459H22.7094C22.5434 30.3459 22.4088 30.2113 22.4088 30.0453V28.178H16.7529C15.3434 28.178 14.2008 27.0355 14.2008 25.626V20.9268H16.0757C16.7805 20.9268 17.3518 20.3555 17.3518 19.6508ZM5.90776 31.7479C5.90776 31.7386 5.90298 31.7339 5.8982 31.7293C5.89341 31.7246 5.88863 31.7199 5.88863 31.7106L5.87123 31.6828C5.7799 31.5368 5.74265 31.4772 5.68939 31.4548C5.6527 31.4393 5.60841 31.4414 5.53361 31.4449C5.4911 31.447 5.43875 31.4495 5.37233 31.4495C3.99554 31.4681 2.88645 30.5914 2.54225 29.3976C2.12254 27.8489 3.02634 26.3851 4.48917 25.9628C3.0266 26.3853 2.12304 27.8489 2.54271 29.3975C2.88691 30.5913 3.996 31.468 5.37279 31.4494C5.43921 31.4494 5.49156 31.4469 5.53407 31.4448C5.60912 31.4413 5.65345 31.4392 5.69022 31.4548C5.74328 31.4774 5.78057 31.537 5.87169 31.6827L5.88909 31.7105C5.88909 31.7198 5.89387 31.7245 5.89865 31.7292C5.90343 31.7338 5.90821 31.7385 5.90821 31.7478C8.06902 35.1241 10.9947 37.6423 14.7044 39.3025C16.7887 40.2351 18.9878 40.7761 21.2633 40.9626C22.2386 41.0559 23.1947 41.0745 24.1699 40.9999C24.9186 40.9561 25.6673 40.878 26.4068 40.7566C25.6671 40.878 24.9183 40.9562 24.1694 41C23.1942 41.0746 22.2381 41.056 21.2629 40.9627C18.9873 40.7762 16.7883 40.2352 14.704 39.3026C10.9943 37.6424 8.06856 35.1242 5.90776 31.7479ZM36.4272 33.7251C34.2343 35.9874 31.7312 37.5639 28.9345 38.4827C31.731 37.5639 34.234 35.9874 36.4268 33.7252C38.8553 31.207 40.3851 28.2224 41.0543 24.8088C41.2264 23.9135 41.3412 23.0181 41.3603 22.1041C41.3603 22.0516 41.3634 21.9743 41.3671 21.882L41.3671 21.8815L41.3671 21.8812L41.3671 21.8809L41.3671 21.8806C41.3726 21.7434 41.3794 21.5731 41.3794 21.4009H41.3799C41.3799 21.5736 41.373 21.7445 41.3675 21.8819L41.3675 21.8822C41.3638 21.9744 41.3607 22.0515 41.3607 22.104C41.3416 23.018 41.2269 23.9134 41.0548 24.8087C40.3855 28.2223 38.8557 31.2069 36.4272 33.7251ZM27.1384 40.6223C27.0985 40.6302 27.0586 40.638 27.0186 40.6456C27.0188 40.6456 27.019 40.6455 27.0191 40.6455C27.0589 40.6379 27.0987 40.6301 27.1384 40.6223ZM21.2237 41.3943C18.9022 41.2037 16.655 40.6513 14.5233 39.6974C10.7359 38.0024 7.74419 35.4276 5.53751 31.9797L5.47442 31.8811C5.44431 31.8821 5.41067 31.8828 5.37536 31.8828C3.79837 31.9029 2.5181 30.8942 2.12087 29.5164L2.11991 29.5131L2.11901 29.5098C1.6121 27.6393 2.78732 25.8715 4.6114 25.4856L4.61447 25.485C6.47919 25.1042 8.28651 26.2079 8.57783 28.0986C8.75237 29.1466 8.43987 30.052 7.76134 30.8245L7.76434 30.8289L7.76721 30.8327L7.77704 30.8455L7.7859 30.859C9.61587 33.646 12.0403 35.7567 15.0855 37.2147C16.5426 37.9072 18.0529 38.3979 19.6361 38.6704L19.6486 38.6726L19.6609 38.6754C20.7468 38.9268 21.8388 39.0182 22.9608 39.0184C28.1445 38.9263 32.543 37.1054 36.1099 33.4258C38.4785 30.9697 39.97 28.0615 40.6239 24.7279C40.7924 23.8511 40.9034 22.9818 40.9221 22.0992C40.9223 22.0374 40.9258 21.9503 40.9294 21.8596L40.932 21.7953C40.9367 21.6731 40.9412 21.5367 40.9412 21.4009V21.2682C40.9412 21.1021 41.0758 20.9675 41.2419 20.9675H43.1806C43.3466 20.9675 43.4812 21.1021 43.4812 21.2682V21.8868L43.481 21.8934C43.403 24.4417 42.8958 26.9218 41.8576 29.2723C40.0216 33.4447 37.0681 36.6686 33.0274 38.9155L33.027 38.9158C31.1711 39.9448 29.1961 40.67 27.1034 41.0708C26.1452 41.2614 25.1704 41.3754 24.1992 41.4324C23.1982 41.5087 22.2188 41.4894 21.2237 41.3943ZM4.79263 27.4674C4.46055 27.4674 4.19135 27.7366 4.19135 28.0687V29.1783C4.19135 29.5103 4.46055 29.7795 4.79263 29.7795H5.92793C6.26001 29.7795 6.52921 29.5103 6.52921 29.1783V28.0687C6.52921 27.7366 6.26001 27.4674 5.92793 27.4674H4.79263Z" fill="#DC7467"/>
</svg>
